<?xml version="1.0" encoding="UTF-8"?>
<svg width="30px" height="30px" viewBox="0 0 30 30" version="1.1" xmlns="http://www.w3.org/2000/svg" xmlns:xlink="http://www.w3.org/1999/xlink">
    <!-- Generator: sketchtool 39.1 (31720) - http://www.bohemiancoding.com/sketch -->
    <title>9C37F584-6EAB-48F6-9291-FBD8714DBA9E</title>
    <desc>Created with sketchtool.</desc>
    <defs></defs>
    <g id="Symbols" stroke="none" stroke-width="1" fill="none" fill-rule="evenodd" opacity="0.504780784">
        <g id="Footer" transform="translate(-907.000000, -157.000000)" fill="#FFFFFF">
            <path d="M922,187 C930.284271,187 937,180.284271 937,172 C937,163.715729 930.284271,157 922,157 C913.715729,157 907,163.715729 907,172 C907,180.284271 913.715729,187 922,187 Z M923.067073,180.159836 L923.067073,171.999045 L925.282878,171.999045 L925.57652,169.18679 L923.067073,169.18679 L923.070837,167.77923 C923.070837,167.045751 923.139385,166.652736 924.175603,166.652736 L925.560834,166.652736 L925.560834,163.840164 L923.344715,163.840164 C920.6828,163.840164 919.745875,165.204409 919.745875,167.498642 L919.745875,169.187109 L918.086609,169.187109 L918.086609,171.999363 L919.745875,171.999363 L919.745875,180.159836 L923.067073,180.159836 Z" id="Facebook"></path>
        </g>
    </g>
</svg>