<?xml version="1.0" encoding="UTF-8"?>
<svg width="30px" height="30px" viewBox="0 0 30 30" version="1.1" xmlns="http://www.w3.org/2000/svg" xmlns:xlink="http://www.w3.org/1999/xlink">
    <!-- Generator: sketchtool 39.1 (31720) - http://www.bohemiancoding.com/sketch -->
    <title>3DE92804-A0A9-4CA3-9B97-CBA04B30C4A5</title>
    <desc>Created with sketchtool.</desc>
    <defs></defs>
    <g id="Symbols" stroke="none" stroke-width="1" fill="none" fill-rule="evenodd" opacity="0.504780784">
        <g id="Footer" transform="translate(-1067.000000, -157.000000)" fill="#FFFFFF">
            <path d="M1082,187 C1090.28427,187 1097,180.284271 1097,172 C1097,163.715729 1090.28427,157 1082,157 C1073.71573,157 1067,163.715729 1067,172 C1067,180.284271 1073.71573,187 1082,187 Z M1079.09498,169.847416 L1076.72995,169.847416 L1076.72995,177.071778 L1079.09498,177.071778 L1079.09498,169.847416 Z M1079.25075,167.61263 C1079.2354,166.904286 1078.73716,166.364768 1077.9281,166.364768 C1077.11904,166.364768 1076.5901,166.904286 1076.5901,167.61263 C1076.5901,168.306302 1077.1034,168.861354 1077.8974,168.861354 L1077.91251,168.861354 C1078.73716,168.861354 1079.25075,168.306302 1079.25075,167.61263 Z M1087.62418,172.92955 C1087.62418,170.710538 1086.45744,169.677774 1084.90114,169.677774 C1083.64547,169.677774 1083.08328,170.378974 1082.76939,170.870878 L1082.76939,169.847608 L1080.40407,169.847608 C1080.43525,170.525505 1080.40407,177.07197 1080.40407,177.07197 L1082.76939,177.07197 L1082.76939,173.03729 C1082.76939,172.821378 1082.78474,172.605993 1082.84727,172.451407 C1083.0182,172.020061 1083.40738,171.573469 1084.06077,171.573469 C1084.91692,171.573469 1085.25915,172.235926 1085.25915,173.20674 L1085.25915,177.071778 L1087.62408,177.071778 L1087.62418,172.92955 Z" id="LinkedIn"></path>
        </g>
    </g>
</svg>