<?xml version="1.0" encoding="UTF-8"?>
<svg width="115px" height="51px" viewBox="0 0 115 51" version="1.1" xmlns="http://www.w3.org/2000/svg" xmlns:xlink="http://www.w3.org/1999/xlink">
    <!-- Generator: sketchtool 39.1 (31720) - http://www.bohemiancoding.com/sketch -->
    <title>9C10E081-3A39-4F86-809F-9EC37DBFDA4C</title>
    <desc>Created with sketchtool.</desc>
    <defs>
        <linearGradient x1="50%" y1="0%" x2="50%" y2="100%" id="linearGradient-1">
            <stop stop-color="#1E6AFF" offset="48.0568399%"></stop>
            <stop stop-color="#164CE1" offset="52.1763393%"></stop>
        </linearGradient>
        <rect id="path-2" x="0" y="0" width="109" height="45" rx="5"></rect>
        <filter x="-50%" y="-50%" width="200%" height="200%" filterUnits="objectBoundingBox" id="filter-3">
            <feOffset dx="0" dy="0" in="SourceAlpha" result="shadowOffsetOuter1"></feOffset>
            <feGaussianBlur stdDeviation="1.5" in="shadowOffsetOuter1" result="shadowBlurOuter1"></feGaussianBlur>
            <feComposite in="shadowBlurOuter1" in2="SourceAlpha" operator="out" result="shadowBlurOuter1"></feComposite>
            <feColorMatrix values="0 0 0 0 0   0 0 0 0 0   0 0 0 0 0  0 0 0 0.5 0" type="matrix" in="shadowBlurOuter1"></feColorMatrix>
        </filter>
        <mask id="mask-4" maskContentUnits="userSpaceOnUse" maskUnits="objectBoundingBox" x="0" y="0" width="109" height="45" fill="white">
            <use xlink:href="#path-2"></use>
        </mask>
    </defs>
    <g id="Symbols" stroke="none" stroke-width="1" fill="none" fill-rule="evenodd">
        <g id="Footer" transform="translate(-1120.000000, -32.000000)">
            <g id="button-reserve-now" transform="translate(1123.000000, 35.000000)">
                <g id="blue-button-style">
                    <g id="Group">
                        <g id="Rectangle">
                            <use fill="black" fill-opacity="1" filter="url(#filter-3)" xlink:href="#path-2"></use>
                            <use stroke="#FFFFFF" mask="url(#mask-4)" stroke-width="2" fill="url(#linearGradient-1)" fill-rule="evenodd" xlink:href="#path-2"></use>
                        </g>
                    </g>
                </g>
                <text id="Live-Chat" font-family="SFUIDisplay-Bold, SF UI Display" font-size="16" font-weight="bold" fill="#FFFFFF">
                    <tspan x="26" y="27">Live Chat</tspan>
                </text>
                <path d="M8,20.5500508 C8,23.051225 9.34580645,25.1781359 11.64,25.8627638 C11.6219355,25.9449192 11.6129032,26.0179462 11.6129032,26.1001015 L11.6129032,28.0535734 C11.6129032,28.7108162 12.0735484,28.7564581 12.5432258,28.2909111 L15.2258065,25.9540476 L16.8696774,25.9540476 C19.9496774,25.9540476 22.4516129,23.4711301 22.4516129,20.4039968 C22.4516129,17.3368635 19.9496774,15 16.8696774,15 L13.5819355,15 C10.5019355,15 8,17.4829175 8,20.5500508 L8,20.5500508 Z M11.6129032,18.6513492 L18.8387097,18.6513492 L18.8387097,19.5641865 L11.6129032,19.5641865 L11.6129032,18.6513492 L11.6129032,18.6513492 Z M11.6129032,20.4770238 L18.8387097,20.4770238 L18.8387097,21.3898611 L11.6129032,21.3898611 L11.6129032,20.4770238 L11.6129032,20.4770238 Z M11.6129032,22.3026984 L16.1290323,22.3026984 L16.1290323,23.2155357 L11.6129032,23.2155357 L11.6129032,22.3026984 L11.6129032,22.3026984 Z" id="Shape" fill="#FFFFFF"></path>
            </g>
        </g>
    </g>
</svg>