<?xml version="1.0" encoding="UTF-8"?>
<svg width="30px" height="30px" viewBox="0 0 30 30" version="1.1" xmlns="http://www.w3.org/2000/svg" xmlns:xlink="http://www.w3.org/1999/xlink">
    <!-- Generator: sketchtool 39.1 (31720) - http://www.bohemiancoding.com/sketch -->
    <title>EF6B6665-CC22-4FEE-85A5-FFFC2F1FAD5B</title>
    <desc>Created with sketchtool.</desc>
    <defs></defs>
    <g id="Symbols" stroke="none" stroke-width="1" fill="none" fill-rule="evenodd" opacity="0.504780784">
        <g id="Footer" transform="translate(-960.000000, -157.000000)" fill="#FFFFFF">
            <path d="M975,187 C983.284271,187 990,180.284271 990,172 C990,163.715729 983.284271,157 975,157 C966.715729,157 960,163.715729 960,172 C960,180.284271 966.715729,187 975,187 Z M974.911333,170.443989 L974.942293,170.963023 L974.426284,170.899467 C972.54801,170.655839 970.9071,169.829622 969.513875,168.442001 L968.832743,167.753487 L968.657299,168.261928 C968.285773,169.395329 968.523137,170.592284 969.297151,171.397316 C969.709958,171.842202 969.617077,171.905758 968.904984,171.640944 C968.657299,171.556204 968.440575,171.492649 968.419935,171.524427 C968.347694,171.598574 968.595378,172.562494 968.791462,172.943825 C969.059787,173.473452 969.606757,173.992485 970.205327,174.299669 L970.711017,174.543297 L970.112446,174.553889 C969.534515,174.553889 969.513875,174.564482 969.575796,174.786925 C969.7822,175.475439 970.597494,176.206324 971.505671,176.5241 L972.145522,176.746543 L971.588232,177.085503 C970.762617,177.57276 969.79252,177.848165 968.822422,177.86935 C968.358014,177.879943 967.976167,177.922313 967.976167,177.954091 C967.976167,178.060016 969.23523,178.653198 969.967963,178.886233 C972.166163,179.574747 974.77717,179.278157 976.738006,178.102386 C978.131231,177.265576 979.524456,175.60255 980.174628,173.992485 C980.525514,173.134491 980.876401,171.566797 980.876401,170.814727 C980.876401,170.327471 980.907361,170.263916 981.485292,169.681327 C981.825858,169.342366 982.145784,168.971627 982.207705,168.865702 C982.310907,168.664444 982.300586,168.664444 981.774257,168.844517 C980.897041,169.162293 980.773199,169.119923 981.206647,168.643259 C981.526572,168.304298 981.908419,167.689932 981.908419,167.509859 C981.908419,167.478081 981.753616,167.531044 981.578173,167.626377 C981.39241,167.732302 980.979602,167.89119 980.669997,167.986522 L980.112707,168.166595 L979.607018,167.817042 C979.328373,167.626377 978.936205,167.414526 978.729802,167.350971 C978.203472,167.202675 977.398498,167.22386 976.923769,167.393341 C975.633746,167.870005 974.818451,169.098738 974.911333,170.443989 Z" id="Twitter"></path>
        </g>
    </g>
</svg>