<?xml version="1.0" encoding="UTF-8"?>
<svg width="30px" height="30px" viewBox="0 0 30 30" version="1.1" xmlns="http://www.w3.org/2000/svg" xmlns:xlink="http://www.w3.org/1999/xlink">
    <!-- Generator: sketchtool 39.1 (31720) - http://www.bohemiancoding.com/sketch -->
    <title>EFB3B496-61AB-43BF-8E04-2FBD1A32E0CF</title>
    <desc>Created with sketchtool.</desc>
    <defs></defs>
    <g id="Symbols" stroke="none" stroke-width="1" fill="none" fill-rule="evenodd" opacity="0.504780784">
        <g id="Footer" transform="translate(-1013.000000, -157.000000)" fill="#FFFFFF">
            <path d="M1028,187 C1036.28427,187 1043,180.284271 1043,172 C1043,163.715729 1036.28427,157 1028,157 C1019.71573,157 1013,163.715729 1013,172 C1013,180.284271 1019.71573,187 1028,187 Z M1036.95287,170.543896 L1034.44172,170.543896 L1034.44172,167.910519 C1034.44172,167.709597 1034.28628,167.546194 1034.09507,167.546194 L1033.38003,167.546194 C1033.18748,167.546194 1033.03204,167.709597 1033.03204,167.910519 L1033.03204,170.543896 L1030.52088,170.543896 C1030.32967,170.543896 1030.17356,170.707649 1030.17356,170.908922 L1030.17356,171.658961 C1030.17356,171.860233 1030.32967,172.023285 1030.52088,172.023285 L1033.03204,172.023285 L1033.03204,174.658064 C1033.03204,174.859337 1033.18748,175.022389 1033.38003,175.022389 L1034.09507,175.022389 C1034.28628,175.022389 1034.44172,174.859337 1034.44172,174.658064 L1034.44172,172.022935 L1036.95287,172.022935 C1037.14409,172.022935 1037.3002,171.859883 1037.3002,171.65861 L1037.3002,170.908571 C1037.3002,170.707298 1037.14409,170.543896 1036.95287,170.543896 Z M1028.51417,172.853272 C1027.98599,172.460896 1027.50596,171.88548 1027.4976,171.708753 C1027.4976,171.386857 1027.52501,171.232922 1028.21331,170.67048 C1029.10318,169.939727 1029.59324,168.978948 1029.59324,167.963818 C1029.59324,167.043363 1029.32514,166.225649 1028.86884,165.651285 L1029.22285,165.651285 C1029.29606,165.651285 1029.36793,165.627441 1029.42643,165.582558 L1030.41425,164.831818 C1030.53693,164.739597 1030.58841,164.575142 1030.54161,164.424714 C1030.49447,164.274636 1030.3621,164.172246 1030.21133,164.172246 L1025.79341,164.172246 C1025.31004,164.172246 1024.81897,164.261662 1024.33693,164.435584 C1022.72701,165.018013 1021.60114,166.457077 1021.60114,167.934363 C1021.60114,170.027389 1023.14687,171.613727 1025.21309,171.663519 C1025.17265,171.829376 1025.15225,171.992779 1025.15225,172.153026 C1025.15225,172.475623 1025.23014,172.781038 1025.3906,173.076285 L1025.33377,173.076285 C1023.36416,173.076285 1021.58643,174.090013 1020.91151,175.598506 C1020.73567,175.990883 1020.64608,176.387467 1020.64608,176.779142 C1020.64608,177.159948 1020.73935,177.526376 1020.9222,177.870714 C1021.34641,178.666688 1022.25734,179.284181 1023.48851,179.610285 C1024.12399,179.778597 1024.80694,179.864506 1025.51596,179.864506 C1026.15311,179.864506 1026.7605,179.778246 1027.3221,179.607831 C1029.07309,179.074493 1030.20532,177.722389 1030.20532,176.161649 C1030.20498,174.664026 1029.74601,173.767415 1028.51417,172.853272 Z M1022.9346,176.281571 C1022.9346,175.192103 1024.25403,174.236584 1025.75798,174.236584 L1025.79843,174.236584 C1026.12569,174.240792 1026.44494,174.291285 1026.74579,174.388064 C1026.84909,174.462753 1026.94871,174.533935 1027.04431,174.602311 C1027.74096,175.100233 1028.20127,175.428792 1028.32931,175.956168 C1028.35939,176.089064 1028.37443,176.221961 1028.37443,176.350649 C1028.37443,177.707311 1027.41002,178.394935 1025.50693,178.394935 C1024.06449,178.394935 1022.9346,177.467116 1022.9346,176.281571 L1022.9346,176.281571 Z M1023.70118,165.477149 C1024.06779,165.164883 1024.54809,165 1025.08731,165 L1025.14832,165.000778 C1026.67161,165.034221 1028.12918,166.300008 1028.39723,167.822452 C1028.54794,168.674865 1028.29345,169.476335 1027.71876,169.964762 C1027.35111,170.277806 1026.8776,170.442689 1026.31647,170.442689 C1026.31647,170.442689 1026.31647,170.442689 1026.31543,170.442689 L1026.29092,170.442689 C1024.79892,170.408468 1023.31006,169.094461 1023.04358,167.573961 C1022.89391,166.723881 1023.1338,165.959742 1023.70118,165.477149 L1023.70118,165.477149 Z" id="Google-Plus"></path>
        </g>
    </g>
</svg>